<svg id="pizza" xmlns="http://www.w3.org/2000/svg" viewBox="0 0 150 150"><defs><style>.cls-1{fill:rgba(255,255,255,0.9);}</style></defs><title>icon-kids</title><circle class="cls-1" cx="49.57" cy="84.58" r="4.19" transform="translate(-13.92 9.88) rotate(-9.99)"/><path class="cls-1" d="M113.49,98.13a11,11,0,0,1-9.82,3.06,10.54,10.54,0,0,1-8-6.17,2.1,2.1,0,0,0-3.94,1.43,14.74,14.74,0,0,0,11.22,8.87,15.19,15.19,0,0,0,13.71-4.43,2.1,2.1,0,0,0-3.16-2.75Z"/><path class="cls-1" d="M148.36,84.33A8.65,8.65,0,0,0,144,81.17c3.46-21.29-9.46-41.28-29-44.73-11.21-2-22.21,1.91-30.33,9.55C76.42,37.77,65,33.53,53.38,35.58,36.8,38.5,25,53.31,23.87,70.71a15,15,0,0,0-12.26-3.08A13.85,13.85,0,0,0,1,76.63c-2.36,6.39-.45,14,5.23,20.9a2.1,2.1,0,0,0,2,.73l.22-.05a2.09,2.09,0,0,0,1.5-1.75c0-.08,1.12-8.48,6.43-11.76a8.63,8.63,0,0,1,3.82-1.22c-1.78,2.55-2.08,6-.9,10.29,1.79,6.5,5.32,8.72,8,9.44a9.7,9.7,0,0,0,4.25.17,10.71,10.71,0,0,0,3.4-1.24c8.48,9.17,20.42,13.49,32.25,11.41a34,34,0,0,0,16.55-8,34.14,34.14,0,0,0,17.51,8.83c11.91,2.1,23.83-2.25,32.3-11.48a10.64,10.64,0,0,0,3.58,1.35,9.7,9.7,0,0,0,4.25-.17c2.64-.72,6.17-2.94,8-9.44C150.48,90.36,150.17,86.88,148.36,84.33ZM114.22,40.56c17.48,3.08,28.94,21.23,25.55,40.45-.13.75-.29,1.48-.46,2.22-8.06-3.22-13.69-9.65-16.74-19.16a49.61,49.61,0,0,1-2.24-13.2q0-1,0-2.07a2.1,2.1,0,0,0-4.19,0s0,.73,0,1.91a26,26,0,0,1-7.66,18.45c1.11-7.22-.63-11.62-.73-11.85a2.1,2.1,0,0,0-3.62-.46c-9,12-22.68,14.56-28.06,15.1q.13-1,.31-2.09C79.77,50.62,96.74,37.48,114.22,40.56Zm-60.1-.86c10.27-1.81,20.34,2,27.6,9.34A41.47,41.47,0,0,0,73.8,63.13,37,37,0,0,1,70,58.94,49.73,49.73,0,0,1,63.38,47.3q-.32-1-.71-1.94a2.1,2.1,0,0,0-3.95,1.4s.23.7.66,1.79a26,26,0,0,1-.89,20c-1.43-7.17-4.57-10.7-4.74-10.88a2.1,2.1,0,0,0-3.56.8C45.87,72.8,33.86,79.87,29,82.22c-.16-.68-.3-1.37-.42-2.07C25.18,60.93,36.64,42.78,54.11,39.7Zm-40,41.43c-4,2.45-6.13,6.76-7.25,10.1-2.69-4.59-3.42-9.23-2-13.15a9.7,9.7,0,0,1,7.43-6.32,11,11,0,0,1,11.51,5.19l.09.13c.07.82.17,1.65.29,2.48A13.72,13.72,0,0,0,14.15,81.13Zm52.26,28.3c-11.88,2.09-23.94-3.22-31.47-13.86A2.09,2.09,0,1,0,31.52,98c.21.3.43.57.65.86a5.88,5.88,0,0,1-3.83.33c-2.29-.62-4-2.87-5-6.52-.82-3-.72-5.32.29-6.78a4.19,4.19,0,0,1,1.65-1.37c.11.41.22.83.34,1.24l0,.07v0c.4,1.33.85,2.63,1.37,3.9a2.1,2.1,0,0,0,3.88-1.59c-.25-.61-.48-1.22-.7-1.84,4.65-2.1,16.59-8.65,22.49-22.42A28.6,28.6,0,0,1,55,74.66,2.1,2.1,0,0,0,58.62,76,28.48,28.48,0,0,0,65.1,59.22a43.73,43.73,0,0,0,7.49,8.37c-.07.33-.17.65-.23,1a8.58,8.58,0,0,0-5,1.47C64.83,71.83,63.35,75,63,79.46c-.54,6.72,2,10,4.25,11.6a9.7,9.7,0,0,0,3.94,1.61,10.64,10.64,0,0,0,3.62,0l0,.08A2.09,2.09,0,0,0,73.12,94a11,11,0,0,1-8.18,6.24,10.53,10.53,0,0,1-9.63-3.06,2.1,2.1,0,0,0-3.21,2.69,14.74,14.74,0,0,0,13.58,4.5,15.22,15.22,0,0,0,11-8,37.71,37.71,0,0,0,4.18,6.11A29.85,29.85,0,0,1,66.41,109.43Zm78.85-15.87c-1,3.64-2.74,5.89-5,6.52a5.94,5.94,0,0,1-4-.42c.34-.47.69-.92,1-1.4a2.1,2.1,0,1,0-3.46-2.36c-7.5,11-19.7,16.53-31.83,14.39C90,108.19,80.53,99.08,77.1,86.5a2.1,2.1,0,0,0-4,1.1c.1.35.21.68.32,1a5.91,5.91,0,0,1-3.71-1c-1.94-1.37-2.8-4.08-2.49-7.84.25-3.08,1.14-5.25,2.59-6.27a4.22,4.22,0,0,1,2-.72c0,.42-.08.85-.1,1.27,0,0,0,.05,0,.08a.24.24,0,0,0,0,0c-.08,1.38-.1,2.75,0,4.11a2.1,2.1,0,0,0,4.19-.17c0-.66,0-1.31,0-2,5.09-.39,18.55-2.45,28.8-13.38a28.58,28.58,0,0,1-1.51,10.91,2.1,2.1,0,0,0,3,2.51,28.51,28.51,0,0,0,11.83-13.56c2.33,8.94,7.75,19.76,20.25,24.59-.32.9-.66,1.79-1,2.66a2.1,2.1,0,1,0,3.83,1.69,42.3,42.3,0,0,0,1.82-5v0s0,0,0-.06c.12-.41.23-.83.33-1.24A4.29,4.29,0,0,1,145,86.78C146,88.24,146.08,90.58,145.25,93.56Z"/><circle class="cls-1" cx="118.77" cy="85.44" r="4.19" transform="translate(14.01 187.59) rotate(-80.01)"/><circle class="cls-1" cx="94.6" cy="81.18" r="4.19" transform="translate(-1.77 160.26) rotate(-80.01)"/></svg>
